HIERARCHY
ROOT mixamorig:Hips
{
	OFFSET 0.000000 102.625267 -0.521241
	CHANNELS 6 Xposition Yposition Zposition Xrotation Yrotation Zrotation
	JOINT mixamorig:Spine
	{
		OFFSET 0.000000 5.645721 -0.031929
		CHANNELS 3 Xrotation Yrotation Zrotation
		JOINT mixamorig:Spine1
		{
			OFFSET 0.000000 6.586685 -0.037251
			CHANNELS 3 Xrotation Yrotation Zrotation
			JOINT mixamorig:Spine2
			{
				OFFSET 0.000000 7.527618 -0.042572
				CHANNELS 3 Xrotation Yrotation Zrotation
				JOINT mixamorig:Neck
				{
					OFFSET 0.000000 8.468590 -0.047894
					CHANNELS 3 Xrotation Yrotation Zrotation
					JOINT mixamorig:Head
					{
						OFFSET 0.000000 5.998901 -1.158958
						CHANNELS 3 Xrotation Yrotation Zrotation
						JOINT mixamorig:HeadTop_End
						{
							OFFSET 0.000000 21.748810 -4.201760
							CHANNELS 3 Xrotation Yrotation Zrotation
							End Site
							{
								OFFSET 0.000000 22.150970 0.000000
							}
						}
					}
				}
				JOINT mixamorig:LeftShoulder
				{
					OFFSET 3.414614 7.343132 -0.058928
					CHANNELS 3 Xrotation Yrotation Zrotation
					JOINT mixamorig:LeftArm
					{
						OFFSET 6.829548 -2.246910 -0.022071
						CHANNELS 3 Xrotation Yrotation Zrotation
						JOINT mixamorig:LeftForeArm
						{
							OFFSET 24.198503 -0.424179 0.257802
							CHANNELS 3 Xrotation Yrotation Zrotation
							JOINT mixamorig:LeftHand
							{
								OFFSET 21.584717 -0.002335 0.669575
								CHANNELS 3 Xrotation Yrotation Zrotation
								JOINT mixamorig:LeftHandThumb1
								{
									OFFSET 2.193897 -1.259628 1.956942
									CHANNELS 3 Xrotation Yrotation Zrotation
									JOINT mixamorig:LeftHandThumb2
									{
										OFFSET 1.755203 -1.007660 1.565605
										CHANNELS 3 Xrotation Yrotation Zrotation
										JOINT mixamorig:LeftHandThumb3
										{
											OFFSET 2.535126 -0.998764 1.490660
											CHANNELS 3 Xrotation Yrotation Zrotation
											JOINT mixamorig:LeftHandThumb4
											{
												OFFSET 2.398251 -0.721657 1.023775
												CHANNELS 3 Xrotation Yrotation Zrotation
												End Site
												{
													OFFSET 2.205696 -0.773872 1.362551
												}
											}
										}
									}
								}
								JOINT mixamorig:LeftHandIndex1
								{
									OFFSET 7.166248 -0.069405 2.369028
									CHANNELS 3 Xrotation Yrotation Zrotation
									JOINT mixamorig:LeftHandIndex2
									{
										OFFSET 2.989986 -0.015724 0.245918
										CHANNELS 3 Xrotation Yrotation Zrotation
										JOINT mixamorig:LeftHandIndex3
										{
											OFFSET 2.739197 -0.058952 0.219132
											CHANNELS 3 Xrotation Yrotation Zrotation
											JOINT mixamorig:LeftHandIndex4
											{
												OFFSET 2.326500 -0.032570 0.188458
												CHANNELS 3 Xrotation Yrotation Zrotation
												End Site
												{
													OFFSET 2.326485 -0.032578 0.188548
												}
											}
										}
									}
								}
								JOINT mixamorig:LeftHandMiddle1
								{
									OFFSET 7.394897 0.286369 0.654762
									CHANNELS 3 Xrotation Yrotation Zrotation
									JOINT mixamorig:LeftHandMiddle2
									{
										OFFSET 3.376106 0.152466 -0.003692
										CHANNELS 3 Xrotation Yrotation Zrotation
										JOINT mixamorig:LeftHandMiddle3
										{
											OFFSET 3.185104 -0.185410 -0.047914
											CHANNELS 3 Xrotation Yrotation Zrotation
											JOINT mixamorig:LeftHandMiddle4
											{
												OFFSET 2.742905 0.223846 0.010354
												CHANNELS 3 Xrotation Yrotation Zrotation
												End Site
												{
													OFFSET 2.742889 0.224251 0.006757
												}
											}
										}
									}
								}
								JOINT mixamorig:LeftHandRing1
								{
									OFFSET 7.508747 0.282753 -1.072900
									CHANNELS 3 Xrotation Yrotation Zrotation
									JOINT mixamorig:LeftHandRing2
									{
										OFFSET 2.821857 0.317802 -0.177266
										CHANNELS 3 Xrotation Yrotation Zrotation
										JOINT mixamorig:LeftHandRing3
										{
											OFFSET 2.672325 0.088310 -0.196165
											CHANNELS 3 Xrotation Yrotation Zrotation
											JOINT mixamorig:LeftHandRing4
											{
												OFFSET 2.272652 -0.053627 -0.183955
												CHANNELS 3 Xrotation Yrotation Zrotation
												End Site
												{
													OFFSET 2.272919 -0.054016 -0.180438
												}
											}
										}
									}
								}
								JOINT mixamorig:LeftHandPinky1
								{
									OFFSET 7.285820 0.522377 -2.660948
									CHANNELS 3 Xrotation Yrotation Zrotation
									JOINT mixamorig:LeftHandPinky2
									{
										OFFSET 2.466278 0.082008 -0.249570
										CHANNELS 3 Xrotation Yrotation Zrotation
										JOINT mixamorig:LeftHandPinky3
										{
											OFFSET 1.940475 0.021858 -0.202004
											CHANNELS 3 Xrotation Yrotation Zrotation
											JOINT mixamorig:LeftHandPinky4
											{
												OFFSET 1.645287 0.153595 -0.153405
												CHANNELS 3 Xrotation Yrotation Zrotation
												End Site
												{
													OFFSET 1.645088 0.153801 -0.155289
												}
											}
										}
									}
								}
							}
						}
					}
				}
				JOINT mixamorig:RightShoulder
				{
					OFFSET -3.414604 7.343132 -0.036860
					CHANNELS 3 Xrotation Yrotation Zrotation
					JOINT mixamorig:RightArm
					{
						OFFSET -6.829551 -2.246986 0.022068
						CHANNELS 3 Xrotation Yrotation Zrotation
						JOINT mixamorig:RightForeArm
						{
							OFFSET -24.198494 -0.424141 0.158696
							CHANNELS 3 Xrotation Yrotation Zrotation
							JOINT mixamorig:RightHand
							{
								OFFSET -21.584698 -0.002243 0.686977
								CHANNELS 3 Xrotation Yrotation Zrotation
								JOINT mixamorig:RightHandThumb1
								{
									OFFSET -2.242882 -1.296806 1.978855
									CHANNELS 3 Xrotation Yrotation Zrotation
									JOINT mixamorig:RightHandThumb2
									{
										OFFSET -1.794239 -1.037361 1.583064
										CHANNELS 3 Xrotation Yrotation Zrotation
										JOINT mixamorig:RightHandThumb3
										{
											OFFSET -2.504150 -0.962166 1.471556
											CHANNELS 3 Xrotation Yrotation Zrotation
											JOINT mixamorig:RightHandThumb4
											{
												OFFSET -2.346046 -0.743172 0.992235
												CHANNELS 3 Xrotation Yrotation Zrotation
												End Site
												{
													OFFSET -2.157112 -0.792709 1.326359
												}
											}
										}
									}
								}
								JOINT mixamorig:RightHandIndex1
								{
									OFFSET -7.174488 -0.001839 2.366265
									CHANNELS 3 Xrotation Yrotation Zrotation
									JOINT mixamorig:RightHandIndex2
									{
										OFFSET -2.935219 -0.016853 0.287245
										CHANNELS 3 Xrotation Yrotation Zrotation
										JOINT mixamorig:RightHandIndex3
										{
											OFFSET -2.786827 -0.129890 0.255971
											CHANNELS 3 Xrotation Yrotation Zrotation
											JOINT mixamorig:RightHandIndex4
											{
												OFFSET -2.343559 0.168816 0.256164
												CHANNELS 3 Xrotation Yrotation Zrotation
												End Site
												{
													OFFSET -2.344208 0.169510 0.249690
												}
											}
										}
									}
								}
								JOINT mixamorig:RightHandMiddle1
								{
									OFFSET -7.274693 0.327965 0.656181
									CHANNELS 3 Xrotation Yrotation Zrotation
									JOINT mixamorig:RightHandMiddle2
									{
										OFFSET -3.309677 0.091591 0.032863
										CHANNELS 3 Xrotation Yrotation Zrotation
										JOINT mixamorig:RightHandMiddle3
										{
											OFFSET -3.186844 -0.122513 0.000971
											CHANNELS 3 Xrotation Yrotation Zrotation
											JOINT mixamorig:RightHandMiddle4
											{
												OFFSET -2.671951 -0.322540 -0.031001
												CHANNELS 3 Xrotation Yrotation Zrotation
												End Site
												{
													OFFSET -2.671928 -0.323486 -0.021820
												}
											}
										}
									}
								}
								JOINT mixamorig:RightHandRing1
								{
									OFFSET -7.453640 0.430428 -1.170334
									CHANNELS 3 Xrotation Yrotation Zrotation
									JOINT mixamorig:RightHandRing2
									{
										OFFSET -2.808174 0.165817 -0.117934
										CHANNELS 3 Xrotation Yrotation Zrotation
										JOINT mixamorig:RightHandRing3
										{
											OFFSET -2.730080 0.127754 -0.119542
											CHANNELS 3 Xrotation Yrotation Zrotation
											JOINT mixamorig:RightHandRing4
											{
												OFFSET -2.349426 0.078133 -0.107466
												CHANNELS 3 Xrotation Yrotation Zrotation
												End Site
												{
													OFFSET -2.349503 0.077988 -0.106043
												}
											}
										}
									}
								}
								JOINT mixamorig:RightHandPinky1
								{
									OFFSET -7.364456 0.463486 -2.604800
									CHANNELS 3 Xrotation Yrotation Zrotation
									JOINT mixamorig:RightHandPinky2
									{
										OFFSET -2.430134 0.174614 -0.251330
										CHANNELS 3 Xrotation Yrotation Zrotation
										JOINT mixamorig:RightHandPinky3
										{
											OFFSET -1.953583 0.007492 -0.220999
											CHANNELS 3 Xrotation Yrotation Zrotation
											JOINT mixamorig:RightHandPinky4
											{
												OFFSET -1.582039 0.276558 -0.139972
												CHANNELS 3 Xrotation Yrotation Zrotation
												End Site
												{
													OFFSET -1.581284 0.277252 -0.147002
												}
											}
										}
									}
								}
							}
						}
					}
				}
			}
		}
	}
	JOINT mixamorig:LeftUpLeg
	{
		OFFSET 6.620181 -8.816864 -0.447179
		CHANNELS 3 Xrotation Yrotation Zrotation
		JOINT mixamorig:LeftLeg
		{
			OFFSET 2.748989 -36.076775 0.650871
			CHANNELS 3 Xrotation Yrotation Zrotation
			JOINT mixamorig:LeftFoot
			{
				OFFSET 1.089303 -46.239017 1.019056
				CHANNELS 3 Xrotation Yrotation Zrotation
				JOINT mixamorig:LeftToeBase
				{
					OFFSET -0.371088 -10.380511 12.650617
					CHANNELS 3 Xrotation Yrotation Zrotation
					JOINT mixamorig:LeftToe_End
					{
						OFFSET -0.094684 -0.116785 6.663326
						CHANNELS 3 Xrotation Yrotation Zrotation
						End Site
						{
							OFFSET -0.094684 -0.116785 6.663326
						}
					}
				}
			}
		}
	}
	JOINT mixamorig:RightUpLeg
	{
		OFFSET -6.620174 -8.816818 -0.447182
		CHANNELS 3 Xrotation Yrotation Zrotation
		JOINT mixamorig:RightLeg
		{
			OFFSET -2.748991 -36.076790 0.753614
			CHANNELS 3 Xrotation Yrotation Zrotation
			JOINT mixamorig:RightFoot
			{
				OFFSET -1.089311 -46.239029 0.372114
				CHANNELS 3 Xrotation Yrotation Zrotation
				JOINT mixamorig:RightToeBase
				{
					OFFSET 0.371103 -10.380659 13.284531
					CHANNELS 3 Xrotation Yrotation Zrotation
					JOINT mixamorig:RightToe_End
					{
						OFFSET 0.094689 -0.116865 6.675873
						CHANNELS 3 Xrotation Yrotation Zrotation
						End Site
						{
							OFFSET 0.094687 -0.116865 6.675871
						}
					}
				}
			}
		}
	}
}
MOTION
Frames: 5
Frame Time: 0.016667
44.256653 87.671623 4.207392 363.705743 5.267020 -5.621893 12.712777 4.408154 3.944061 3.136582 0.566697 1.911737 3.127221 0.586057 1.920648 -2.540225 1.199253 -0.808770 14.555973 7.221826 -26.996376 -0.000001 -0.000001 -0.000003 -0.103540 4.660305 0.187994 30.995258 -2.928891 -62.371641 -36.331347 -88.336667 -36.339564 2.518145 -10.091995 -3.180261 1.506944 22.492183 6.718861 2.055708 9.383618 -2.826511 -2.166240 5.545014 0.301956 0.000000 0.000005 -0.000000 -0.199746 -0.361513 2.499801 0.933061 2.113164 -9.072179 1.089856 2.276360 -10.427628 -0.000000 -0.000003 -0.000001 0.202864 -4.417359 -3.428052 0.020157 1.314147 -3.397638 0.410148 3.416326 -18.477564 0.000004 0.000002 -0.000001 -0.010116 -7.040159 -11.159320 -0.454780 1.771821 -6.208271 -0.493366 2.113516 -8.211002 -0.000002 -0.000000 -0.000001 0.135590 -4.037155 -11.088670 -0.882902 -1.272028 -11.993676 -1.325370 3.598131 -16.874652 -0.000000 -0.000001 -0.000000 0.725776 -5.772609 11.275177 391.396341 -2.250717 -351.672234 9.101342 96.213303 -9.161220 -1.986665 12.602959 -9.504181 0.051878 -22.832330 -8.109926 3.325479 -11.428531 3.767102 -3.239143 -4.654626 -1.007304 0.000003 -0.000001 -0.000001 -0.290768 -0.427606 -2.887004 0.606179 -1.306511 5.377518 1.734587 -2.456898 14.448895 -0.000001 0.000002 0.000000 0.191951 3.670486 3.250127 0.107747 -1.450990 5.611806 0.165538 -1.524757 5.683835 -0.000002 -0.000001 -0.000000 0.036733 5.500420 10.373837 -0.383382 -2.731233 12.577597 -0.374759 -2.874394 13.206651 0.000000 0.000000 0.000000 -0.880658 7.264230 18.626926 -1.181624 -3.081075 13.052114 -1.895380 -5.402741 26.450092 0.000001 -0.000001 -0.000000 -43.983181 -4.412604 -0.515037 72.941168 10.890439 3.927410 -32.626567 -0.546296 -0.540540 -4.071179 0.000006 0.000009 0.000000 -0.000000 -0.000000 -12.894302 10.725245 -23.637415 37.643208 -2.533866 -0.348285 -5.894379 -2.021975 21.483648 -16.042699 -0.276384 3.502900 -0.000000 0.000000 -0.000001 
43.880417 87.167587 4.184376 363.981983 6.255570 -6.060779 12.410909 4.719937 4.344110 3.016376 0.593029 2.782310 3.000416 0.630956 2.790255 -3.365037 0.686657 0.217828 13.065589 7.830537 -24.147266 0.000002 0.000002 -0.000001 -0.184841 4.588866 1.423851 33.117593 -1.585248 -64.101168 -44.504840 -88.594022 -44.510150 2.115598 -11.093018 -3.720635 1.506951 22.492185 6.718859 2.055710 9.383618 -2.826512 -2.166243 5.545006 0.301962 0.000005 0.000003 0.000002 -0.199749 -0.361507 2.499801 0.933057 2.113166 -9.072183 1.089856 2.276356 -10.427625 0.000002 0.000001 -0.000001 0.202872 -4.417367 -3.428051 0.020158 1.314141 -3.397646 0.410148 3.416314 -18.477567 0.000005 0.000001 0.000002 -0.010102 -7.040145 -11.159315 -0.454790 1.771814 -6.208266 -0.493366 2.113508 -8.210999 -0.000003 0.000001 -0.000000 0.135590 -4.037153 -11.088670 -0.882877 -1.272025 -11.993640 -1.325363 3.598135 -16.874657 0.000002 -0.000001 0.000000 0.638133 -6.129277 10.163015 390.518798 -3.521118 -354.439334 9.341418 96.056181 -9.399875 -2.385752 13.244486 -8.664453 0.051886 -22.832330 -8.109921 3.325471 -11.428532 3.767108 -3.239142 -4.654630 -1.007309 0.000001 -0.000000 -0.000004 -0.290775 -0.427604 -2.886998 0.606181 -1.306510 5.377526 1.734582 -2.456895 14.448900 -0.000001 -0.000001 -0.000001 0.191956 3.670495 3.250111 0.107744 -1.451014 5.611826 0.165541 -1.524742 5.683830 0.000000 -0.000001 -0.000001 0.036735 5.500424 10.373823 -0.383368 -2.731249 12.577594 -0.374753 -2.874390 13.206642 -0.000000 -0.000002 -0.000001 -0.880653 7.264218 18.626909 -1.181627 -3.081064 13.052136 -1.895372 -5.402745 26.450092 -0.000001 -0.000002 -0.000001 -45.146994 -5.806243 -1.334546 74.245475 11.783998 4.206712 -32.964098 -0.614079 -0.317287 -4.318327 -0.000002 0.000004 0.000000 0.000000 -0.000000 -12.199374 10.862797 -22.600464 38.033222 -4.597540 -0.567730 -9.544077 -2.656616 21.697962 -13.320001 -0.171684 2.783416 0.000000 -0.000000 -0.000001 
43.621040 86.741074 4.162788 364.270053 7.139560 -6.387323 11.986058 4.837322 4.456692 2.953328 0.599846 3.610443 2.931058 0.654897 3.617693 -3.830698 0.171018 1.112083 11.601218 8.073232 -19.986590 0.000003 -0.000001 0.000001 -0.276434 4.483686 2.877728 34.766144 -0.723912 -65.690150 -42.728246 -88.547529 -42.734332 2.245437 -11.732512 -4.083131 1.506950 22.492187 6.718858 2.055708 9.383622 -2.826508 -2.166241 5.545009 0.301958 0.000001 -0.000002 -0.000003 -0.199740 -0.361508 2.499805 0.933060 2.113169 -9.072180 1.089854 2.276359 -10.427626 0.000003 -0.000001 0.000000 0.202869 -4.417366 -3.428048 0.020153 1.314141 -3.397630 0.410146 3.416321 -18.477569 0.000002 -0.000000 -0.000002 -0.010115 -7.040150 -11.159306 -0.454778 1.771825 -6.208280 -0.493363 2.113512 -8.210996 0.000001 -0.000002 0.000002 0.135580 -4.037142 -11.088673 -0.882875 -1.272023 -11.993652 -1.325366 3.598129 -16.874648 -0.000001 -0.000002 -0.000001 0.555114 -6.363408 9.178920 389.475664 -4.118223 -356.894050 10.260942 95.521992 -10.314584 -2.831111 13.638343 -7.916459 0.051884 -22.832334 -8.109918 3.325475 -11.428531 3.767107 -3.239144 -4.654622 -1.007300 0.000002 -0.000004 -0.000004 -0.290776 -0.427603 -2.887001 0.606180 -1.306510 5.377523 1.734581 -2.456895 14.448901 -0.000001 -0.000000 -0.000003 0.191943 3.670489 3.250114 0.107746 -1.450987 5.611814 0.165545 -1.524752 5.683830 -0.000001 -0.000001 -0.000000 0.036721 5.500408 10.373840 -0.383384 -2.731250 12.577576 -0.374751 -2.874380 13.206646 0.000001 0.000003 -0.000000 -0.880657 7.264224 18.626920 -1.181625 -3.081061 13.052112 -1.895384 -5.402751 26.450102 0.000000 0.000000 0.000001 -46.171406 -7.030021 -2.308214 75.302767 12.676083 4.474453 -33.234471 -0.684258 -0.076985 -4.549285 0.000006 0.000001 0.000000 0.000000 -0.000000 -11.932247 10.708850 -21.789215 38.496869 -6.577553 -0.743536 -12.422188 -3.110304 21.530466 -10.832042 -0.116531 2.308185 -0.000000 -0.000000 0.000001 
43.518227 86.397072 4.145435 364.554599 7.727395 -6.652859 11.436059 4.932468 4.461106 2.970101 0.613507 4.354946 2.941828 0.681529 4.362387 -3.905992 -0.307074 1.911350 10.414366 7.789973 -15.465734 0.000002 -0.000000 0.000000 -0.359332 4.325426 4.334291 36.018798 -0.281443 -66.931216 -37.810363 -88.392517 -37.818023 2.610500 -11.981835 -4.331184 1.506952 22.492183 6.718856 2.055711 9.383618 -2.826509 -2.166243 5.545007 0.301958 0.000005 0.000000 -0.000003 -0.199743 -0.361515 2.499800 0.933061 2.113164 -9.072177 1.089851 2.276355 -10.427621 0.000002 0.000002 -0.000000 0.202859 -4.417359 -3.428049 0.020148 1.314139 -3.397653 0.410148 3.416317 -18.477566 0.000002 -0.000001 0.000000 -0.010120 -7.040163 -11.159323 -0.454808 1.771832 -6.208280 -0.493365 2.113511 -8.210999 -0.000003 0.000000 0.000001 0.135587 -4.037159 -11.088677 -0.882889 -1.272029 -11.993667 -1.325361 3.598133 -16.874653 0.000002 -0.000002 0.000002 0.481360 -6.558471 8.341751 388.230521 -4.164237 -358.956685 11.668692 94.866772 -11.716352 -3.443451 13.874817 -7.184181 0.051882 -22.832334 -8.109920 3.325472 -11.428528 3.767102 -3.239144 -4.654624 -1.007307 0.000001 -0.000002 0.000003 -0.290775 -0.427618 -2.887006 0.606180 -1.306513 5.377521 1.734584 -2.456898 14.448895 0.000001 0.000003 0.000000 0.191949 3.670510 3.250115 0.107757 -1.451001 5.611808 0.165534 -1.524745 5.683829 -0.000000 -0.000001 0.000003 0.036731 5.500412 10.373832 -0.383377 -2.731233 12.577583 -0.374749 -2.874396 13.206651 -0.000001 -0.000001 -0.000000 -0.880656 7.264210 18.626911 -1.181620 -3.081051 13.052110 -1.895393 -5.402755 26.450111 0.000000 0.000001 0.000000 -47.032860 -7.986027 -3.198740 76.165564 13.352318 4.658393 -33.480628 -0.640237 0.286105 -4.766319 0.000002 0.000006 -0.000000 -0.000000 -0.000001 -12.056090 10.369160 -21.328982 38.932778 -7.873600 -0.797081 -14.332293 -3.369336 21.214817 -8.976275 -0.093948 2.082575 -0.000000 -0.000000 0.000001 
43.595039 86.136696 4.128463 364.835702 7.896300 -6.919349 10.755740 5.110295 4.538417 3.076719 0.650041 5.000338 3.042249 0.725230 5.009239 -3.645657 -0.710464 2.616077 9.748154 7.038755 -11.510188 -0.000000 -0.000001 0.000000 -0.424707 4.155434 5.610802 36.993531 -0.159817 -67.610970 -36.946778 -88.360477 -36.954735 2.924998 -11.923571 -4.518009 1.506952 22.492183 6.718858 2.055714 9.383618 -2.826512 -2.166243 5.545011 0.301959 0.000000 0.000004 0.000001 -0.199744 -0.361509 2.499800 0.933062 2.113164 -9.072179 1.089854 2.276360 -10.427624 0.000001 -0.000001 -0.000000 0.202842 -4.417358 -3.428059 0.020161 1.314144 -3.397651 0.410149 3.416318 -18.477567 0.000003 0.000002 -0.000001 -0.010118 -7.040149 -11.159314 -0.454800 1.771820 -6.208295 -0.493371 2.113511 -8.210997 -0.000001 0.000001 0.000001 0.135581 -4.037152 -11.088665 -0.882872 -1.272019 -11.993659 -1.325367 3.598135 -16.874655 0.000003 -0.000000 0.000000 0.417600 -6.767190 7.651305 386.692963 -3.812284 -360.546917 13.125299 94.336858 -13.168095 -4.358960 14.112012 -6.319894 0.051880 -22.832334 -8.109918 3.325472 -11.428527 3.767108 -3.239144 -4.654625 -1.007301 0.000001 -0.000002 0.000003 -0.290772 -0.427604 -2.887008 0.606178 -1.306510 5.377516 1.734584 -2.456896 14.448896 0.000000 -0.000001 0.000001 0.191936 3.670482 3.250118 0.107755 -1.451009 5.611832 0.165545 -1.524735 5.683826 0.000001 -0.000000 -0.000001 0.036709 5.500398 10.373842 -0.383372 -2.731231 12.577576 -0.374762 -2.874386 13.206645 -0.000001 0.000002 -0.000000 -0.880668 7.264209 18.626921 -1.181632 -3.081071 13.052123 -1.895380 -5.402748 26.450102 0.000000 -0.000000 -0.000001 -47.734481 -8.622228 -3.792329 76.887870 13.560973 4.710143 -33.723711 -0.346245 0.845897 -4.958973 0.000006 0.000009 -0.000000 -0.000000 0.000000 -12.491848 9.975743 -21.216460 39.229861 -8.181117 -0.727893 -15.236185 -3.468771 20.954841 -7.981470 -0.089100 2.033680 -0.000000 0.000000 0.000000 
